<svg xmlns="http://www.w3.org/2000/svg" viewBox="0 0 74.35 71.81"><defs><style>.cls-1{fill:#1c75bc;}.cls-2{fill:#ec6663;}</style></defs><g id="Layer_2" data-name="Layer 2"><g id="Layer_1-2" data-name="Layer 1"><path class="cls-1" d="M29.45,0A29.45,29.45,0,0,0,15.11,55.17a31.52,31.52,0,0,1-1.79-5.36,30.77,30.77,0,0,1-.63-3.6A23.7,23.7,0,0,1,43,10c.64,0,1.29-.06,1.94-.06s1.14,0,1.7.05a31.24,31.24,0,0,1,5.59.79A29.39,29.39,0,0,0,29.45,0ZM20.39,51.36a23.05,23.05,0,0,1-4.16-2.23,29.13,29.13,0,0,0,3.2,8,29.58,29.58,0,0,0,4.95,1.32,31.5,31.5,0,0,0,3.53.4,24,24,0,0,1-4.5-6.49A22.37,22.37,0,0,1,20.39,51.36Zm36.7-32.08a29.24,29.24,0,0,0-2.18-4.63,29.47,29.47,0,0,0-8.47-1.72,24,24,0,0,1,3,3.7,24.27,24.27,0,0,1,1.54,2.78,23.5,23.5,0,0,1,7.19,3.28A25.85,25.85,0,0,0,57.09,19.28Z"/><path class="cls-1" d="M54.91,14.65a29.47,29.47,0,0,0-8.47-1.72c-.51,0-1,0-1.55,0A29.48,29.48,0,0,0,15.44,42.35a29.47,29.47,0,0,0,4,14.81A29.46,29.46,0,1,0,54.91,14.65Zm-10,51.41a23.63,23.63,0,0,1-17-7.18,24,24,0,0,1-4.5-6.49A23.71,23.71,0,0,1,44.89,18.64a24,24,0,0,1,6,.77A23.85,23.85,0,0,1,68.61,42.35,23.74,23.74,0,0,1,44.89,66.06Z"/><rect class="cls-2" x="42.38" y="26.82" width="5.03" height="31.05" transform="translate(-16.8 44.15) rotate(-45)"/><rect class="cls-2" x="29.37" y="39.84" width="31.05" height="5.03" transform="translate(-16.8 44.15) rotate(-45.01)"/></g></g></svg>