<svg xmlns="http://www.w3.org/2000/svg" viewBox="0 0 89.26 34.9"><defs><style>.cls-1{fill:#1c75bc;}.cls-2{fill:#ec6663;}</style></defs><g id="Layer_2" data-name="Layer 2"><g id="Layer_1-2" data-name="Layer 1"><path class="cls-1" d="M.15,0H12.06V2.08l-1.89.29-.24.53,4,5.9,4.3-6.19-2.51-.43V0H24.8V2.27l-2.73.34-6.34,8.22L23.1,21.46l2.61.46V24.1H14.14V22.16l1.74-.43.19-.51L11.72,14.6,7.06,21.41l2.53.51V24.1H0V21.92l2.9-.56,6.94-8.84L3,2.66.15,2.27Z"/><path class="cls-1" d="M62.53,0H75.1V2.13l-2.52.29-.5.7,5.34,14L82.81,3.17l-.44-.75-2.61-.29V0h9.5V2.13l-2.68.43L77,25.79a20.2,20.2,0,0,1-4.23,6.68,7.17,7.17,0,0,1-5,2.43,4.38,4.38,0,0,1-3-1.1,3.32,3.32,0,0,1-1.26-2.57,3.27,3.27,0,0,1,.66-2,5.3,5.3,0,0,1,1.9-1.54l4.3,3a9.39,9.39,0,0,0,2-2.33,25.26,25.26,0,0,0,1.87-3.69L65.5,2.56l-3-.43Z"/><rect class="cls-2" x="28.29" y="7.01" width="13.96" height="4.06"/><rect class="cls-2" x="45.99" y="7.01" width="13.96" height="4.06"/><rect class="cls-2" x="28.29" y="14.14" width="13.96" height="4.06"/><rect class="cls-2" x="45.99" y="14.14" width="13.96" height="4.06"/></g></g></svg>