<svg xmlns="http://www.w3.org/2000/svg" viewBox="0 0 115.64 88.13"><defs><style>.cls-1{fill:#1c75bc;}.cls-2{fill:#ec6663;}</style></defs><g id="Layer_2" data-name="Layer 2"><g id="Layer_1-2" data-name="Layer 1"><path class="cls-1" d="M103.31,26.85c-5.9,0-10.06,3.47-13.85,7.19l-.09.09-5.32,5.4-.16.16c-.56.58-1.14,1.18-1.75,1.78l-.1.1C79.2,44.36,75.89,47.06,72,47.06a7.17,7.17,0,0,1-7.28-7.53A7.54,7.54,0,0,1,72.23,32a9.7,9.7,0,0,1,5.49,1.87l-1.19,1.89,9.27.38-4.3-8.22-1.11,1.75a14.14,14.14,0,0,0-8.07-2.81,12.78,12.78,0,0,0-13,12.68c0,7.36,5.14,12.67,12.33,12.67,5.89,0,10.06-3.46,13.85-7.18l5.42-5.49.62-.64c.41-.43.84-.86,1.28-1.3l.11-.1C95.74,34.69,99.05,32,103,32a7.18,7.18,0,0,1,7.28,7.54,7.55,7.55,0,0,1-7.54,7.53,9.74,9.74,0,0,1-5.41-1.81l1.38-1.7L89.5,42.11l3.34,8.66,1.34-1.65a14.33,14.33,0,0,0,8.45,3.08,12.77,12.77,0,0,0,13-12.67C115.64,32.16,110.59,26.85,103.31,26.85Z"/><line class="cls-2" x1="38.21" y1="39.53" x2="55.64" y2="39.53"/><rect class="cls-2" x="38.21" y="36.89" width="17.43" height="5.27"/><path class="cls-1" d="M14.58,88.13A14.58,14.58,0,0,1,5.82,61.9V8.76a8.77,8.77,0,0,1,17.53,0V61.9a14.58,14.58,0,0,1-8.77,26.23ZM14.58,3A5.76,5.76,0,0,0,8.82,8.76V63.47l-.67.45a11.58,11.58,0,1,0,12.86,0l-.66-.45V8.76A5.77,5.77,0,0,0,14.58,3Z"/><path class="cls-2" d="M17.43,66.22V26.69h-5.7V66.22a8.11,8.11,0,1,0,5.7,0Z"/><line class="cls-1" x1="25.87" y1="13.21" x2="32.58" y2="13.21"/><path class="cls-1" d="M32.58,14.71H25.87a1.5,1.5,0,1,1,0-3h6.71a1.5,1.5,0,0,1,0,3Z"/><line class="cls-1" x1="25.87" y1="26.45" x2="32.58" y2="26.45"/><path class="cls-1" d="M32.58,28H25.87a1.5,1.5,0,0,1,0-3h6.71a1.5,1.5,0,0,1,0,3Z"/><line class="cls-1" x1="25.87" y1="39.7" x2="32.58" y2="39.7"/><path class="cls-1" d="M32.58,41.2H25.87a1.5,1.5,0,0,1,0-3h6.71a1.5,1.5,0,0,1,0,3Z"/><line class="cls-1" x1="25.87" y1="52.94" x2="32.58" y2="52.94"/><path class="cls-1" d="M32.58,54.44H25.87a1.5,1.5,0,0,1,0-3h6.71a1.5,1.5,0,0,1,0,3Z"/></g></g></svg>