<svg xmlns="http://www.w3.org/2000/svg" viewBox="0 0 82.8 88.13"><defs><style>.cls-1{fill:#1c75bc;}.cls-2{fill:#ec6663;}</style></defs><g id="Layer_2" data-name="Layer 2"><g id="Layer_1-2" data-name="Layer 1"><rect class="cls-1" x="58.25" y="16.52" width="6.37" height="16.05"/><rect class="cls-1" x="58.25" y="44.27" width="6.37" height="13.62"/><polygon class="cls-1" points="51.91 55.11 61.44 71.61 70.97 55.11 51.91 55.11"/><rect class="cls-2" x="40.08" y="35.24" width="42.72" height="6.37"/><path class="cls-1" d="M14.58,88.13A14.58,14.58,0,0,1,5.82,61.9V8.76a8.77,8.77,0,0,1,17.53,0V61.9a14.58,14.58,0,0,1-8.77,26.23ZM14.58,3A5.76,5.76,0,0,0,8.82,8.76V63.47l-.67.45a11.58,11.58,0,1,0,12.86,0l-.66-.45V8.76A5.77,5.77,0,0,0,14.58,3Z"/><path class="cls-2" d="M17.43,66.22V26.69h-5.7V66.22a8.11,8.11,0,1,0,5.7,0Z"/><line class="cls-1" x1="25.87" y1="13.21" x2="32.58" y2="13.21"/><path class="cls-1" d="M32.58,14.71H25.87a1.5,1.5,0,1,1,0-3h6.71a1.5,1.5,0,0,1,0,3Z"/><line class="cls-1" x1="25.87" y1="26.45" x2="32.58" y2="26.45"/><path class="cls-1" d="M32.58,28H25.87a1.5,1.5,0,0,1,0-3h6.71a1.5,1.5,0,0,1,0,3Z"/><line class="cls-1" x1="25.87" y1="39.7" x2="32.58" y2="39.7"/><path class="cls-1" d="M32.58,41.2H25.87a1.5,1.5,0,0,1,0-3h6.71a1.5,1.5,0,0,1,0,3Z"/><line class="cls-1" x1="25.87" y1="52.94" x2="32.58" y2="52.94"/><path class="cls-1" d="M32.58,54.44H25.87a1.5,1.5,0,0,1,0-3h6.71a1.5,1.5,0,0,1,0,3Z"/></g></g></svg>