<svg xmlns="http://www.w3.org/2000/svg" viewBox="0 0 50.36 49.19"><defs><style>.cls-1{fill:#1c75bc;}.cls-2{fill:#ec6663;}</style></defs><g id="Layer_2" data-name="Layer 2"><g id="Layer_1-2" data-name="Layer 1"><path class="cls-1" d="M8.83,1.68h17q8.18,0,12.12,3t3.94,9a9.77,9.77,0,0,1-2.7,7.11q-2.7,2.79-8.08,4a14.83,14.83,0,0,1,4.2,1.77A8.28,8.28,0,0,1,38,29.23a17.58,17.58,0,0,1,1.89,5.26,37.07,37.07,0,0,0,1.24,4.61,6.75,6.75,0,0,0,2.77,3.74c1.17.66,3.14,1,5.89,1h.59v2.54c-1,.2-1.92.34-2.77.44a20.5,20.5,0,0,1-2.41.15,14.72,14.72,0,0,1-4-.47A7.44,7.44,0,0,1,38.44,45Q36.06,43,34.5,36.89c-.39-1.45-.71-2.54-1-3.25Q32.21,29.56,30,28T23.1,26.44c-.65,0-1.7,0-3.13.1l-.23,0V42.43l1.14,1,3.81.32v2.74H8.83V43.7l3.78-.32,1.14-1V5.69l-1.14-1L8.83,4.35ZM19.74,4.74V23.31l1.92.05,1.76,0q6.2,0,9-2.18c1.88-1.45,2.82-3.79,2.82-7s-1-5.73-2.9-7.22S27.29,4.74,23,4.74Z"/><rect class="cls-2" x="-7.79" y="22.2" width="64.77" height="4.8" transform="translate(-10.19 24.6) rotate(-45.01)"/></g></g></svg>