<svg xmlns="http://www.w3.org/2000/svg" viewBox="0 0 88.68 88.68"><defs><style>.cls-1{fill:none;stroke:#1e75bc;stroke-miterlimit:10;stroke-width:3px;}.cls-2{fill:#1d75bc;}</style></defs><g id="Layer_2" data-name="Layer 2"><g id="Layer_2-2" data-name="Layer 2"><circle class="cls-1" cx="44.34" cy="44.34" r="42.84"/><path class="cls-2" d="M23.8,25h8.57v1.5L31,26.69l-.17.38,2.85,4.24,3.1-4.45L35,26.55V25h6.55v1.64l-2,.24L35,32.77l5.3,7.65,1.88.33v1.56H33.87V40.92l1.25-.31.14-.37-3.13-4.76-3.36,4.9,1.83.37v1.56H23.7V40.75l2.08-.4,5-6.36-4.95-7.1-2-.27Z"/><path class="cls-2" d="M58,45.43a5.79,5.79,0,0,1,5.22,2.81Q65,51.06,65,56.56c0,3.68-.59,6.45-1.77,8.33a6.23,6.23,0,0,1-10.42,0C51.62,63,51,60.24,51,56.56s.58-6.44,1.76-8.32A5.76,5.76,0,0,1,58,45.43Zm0,2.31a3.23,3.23,0,0,0-3,2.17,16.72,16.72,0,0,0-1,6.65,25.3,25.3,0,0,0,.27,3.81L61,49.65A3.31,3.31,0,0,0,58,47.74Zm0,17.65a3.24,3.24,0,0,0,3.06-2.18,16.84,16.84,0,0,0,1-6.65,29.24,29.24,0,0,0-.29-4.29L54.9,63C55.62,64.6,56.66,65.39,58,65.39Z"/><line class="cls-1" x1="58.48" y1="31.33" x2="32.94" y2="57.02"/></g></g></svg>