<svg xmlns="http://www.w3.org/2000/svg" viewBox="0 0 88.76 88.76"><defs><style>.cls-1{fill:#1d75bc;}.cls-2{fill:none;stroke:#1e75bc;stroke-miterlimit:10;stroke-width:3px;}</style></defs><g id="Layer_2" data-name="Layer 2"><g id="Layer_2-2" data-name="Layer 2"><path class="cls-1" d="M70,30.93c-7.11,0-11.59,4.77-16.13,10.12l-2.41,3.36c-3.67,4.53-7.58,9-13.18,9-5,0-8.3-3.78-8.3-9,0-4.76,3.12-9.28,8.54-9.28,4.85,0,8.21,3.8,11.17,7.25l2.88-2.88c-3.71-4.42-7.82-8.57-14-8.57-7.34,0-12.53,6.33-12.53,13.48,0,7.82,5.35,13.41,11.9,13.41,7.18,0,11.5-5.59,15.82-10.45L56.08,44c4.71-5.52,8-8.88,13.5-8.88,5.35,0,8.22,4.19,8.22,9.28,0,4.78-2.79,9-8.54,9-4.5,0-7.86-3.3-11.24-7.14l-3,2.66c3.84,4.43,8.23,8.92,14.11,8.92,7.42,0,12.45-6.33,12.45-13.41C81.63,36.77,76.76,30.93,70,30.93Z"/><rect class="cls-1" x="7.13" y="42.65" width="15.85" height="3.46"/><rect class="cls-1" x="13.33" y="36.45" width="3.46" height="15.85"/><circle class="cls-2" cx="44.38" cy="44.38" r="42.88"/></g></g></svg>