<svg xmlns="http://www.w3.org/2000/svg" viewBox="0 0 88.68 88.68"><defs><style>.cls-1{fill:#1d75bc;}.cls-2{fill:none;stroke:#1e75bc;stroke-miterlimit:10;stroke-width:3px;}</style></defs><g id="Layer_2" data-name="Layer 2"><g id="Layer_2-2" data-name="Layer 2"><path class="cls-1" d="M25.29,24.94V22.35h9.06v3.56H33.7ZM35,62.13l8.4,1v2.59H25.29V63.1l8.41-1ZM31.44,42.4c0-6.66,0-13.39-.2-20h6.21c-.19,6.73-.19,13.07-.19,20.7V45c0,7.31,0,14,.19,20.7H31.24c.2-6.54.2-13.26.2-20Zm2.91.32h8.08c7,0,10.35-3.75,10.35-9,0-5.43-2.91-8.4-9.63-8.4h-8.8v-3h8.86c9.9,0,15.72,4.21,15.72,11.38,0,5.5-4.34,10.48-12.81,11.19l.19-.51c4.66.45,7.51,2.58,9.25,8.4l3.17,10.74-2-1.23,6.66.78v2.59a15.17,15.17,0,0,1-4.66.64c-4,0-5.75-1-6.53-4L49.55,51.78c-1.29-5.24-3.69-6.14-9.06-6.14H34.35Z"/><circle class="cls-2" cx="44.34" cy="44.34" r="42.84"/><polyline class="cls-2" points="73.34 12.81 57.64 28.51 52.77 33.37 43.45 42.7 40.52 45.63 37.26 48.89 31.42 54.73 12.81 73.34"/></g></g></svg>