<svg xmlns="http://www.w3.org/2000/svg" viewBox="0 0 103.56 100.02"><defs><style>.cls-1{fill:#43668b;}.cls-2{fill:#ec6663;}</style></defs><g id="Layer_2" data-name="Layer 2"><g id="Layer_1-2" data-name="Layer 1"><path class="cls-1" d="M41,0A41,41,0,0,0,21,76.84a44.59,44.59,0,0,1-3.37-12.48A33,33,0,0,1,59.83,13.89c.89-.05,1.79-.08,2.7-.08s1.59,0,2.37.06A44.33,44.33,0,0,1,72.68,15,40.93,40.93,0,0,0,41,0ZM28.4,71.54a32.29,32.29,0,0,1-5.8-3.11,40.63,40.63,0,0,0,4.47,11.19A40.85,40.85,0,0,0,34,81.45a41.83,41.83,0,0,0,4.92.56,33,33,0,0,1-6.27-9A31.59,31.59,0,0,1,28.4,71.54ZM79.52,26.85a40.44,40.44,0,0,0-3-6.45A40.86,40.86,0,0,0,64.68,18a32,32,0,0,1,4.11,5.16A33.17,33.17,0,0,1,70.94,27,33,33,0,0,1,81,31.6,38.31,38.31,0,0,0,79.52,26.85Z"/><path class="cls-1" d="M76.48,20.4A40.86,40.86,0,0,0,64.68,18C64,18,63.25,18,62.53,18A41,41,0,0,0,22.6,68.43a40.63,40.63,0,0,0,4.47,11.19A41,41,0,1,0,76.48,20.4ZM62.53,92a33,33,0,0,1,0-66.06,33,33,0,1,1,0,66.06Z"/><rect class="cls-2" x="59.03" y="37.36" width="7" height="43.25" transform="translate(-23.4 61.49) rotate(-45)"/><rect class="cls-2" x="40.9" y="55.49" width="43.25" height="7" transform="translate(-23.4 61.5) rotate(-45.01)"/></g></g></svg>