<svg xmlns="http://www.w3.org/2000/svg" viewBox="0 0 110 43.01"><defs><style>.cls-1{fill:#43668b;}.cls-2{fill:#ec6663;}</style></defs><g id="Layer_2" data-name="Layer 2"><g id="Layer_1-2" data-name="Layer 1"><path class="cls-1" d="M.18,0H14.86V2.56l-2.32.36-.3.65,4.89,7.27,5.3-7.62-3.1-.54V0H30.56V2.8l-3.37.42-7.8,10.12,9.08,13.11,3.22.56V29.7H17.42V27.31l2.15-.53.24-.63L14.45,18,8.7,26.39l3.12.62V29.7H0V27l3.57-.68,8.55-10.9L3.63,3.28.18,2.8Z"/><path class="cls-1" d="M77.06,0H92.55V2.62L89.45,3l-.62.86,6.58,17.25L102.05,3.9,101.52,3,98.3,2.62V0H110V2.62l-3.3.54L94.93,31.78A24.64,24.64,0,0,1,89.72,40c-2,2-4.07,3-6.13,3a5.41,5.41,0,0,1-3.7-1.36,4,4,0,0,1-.73-5.6,6.62,6.62,0,0,1,2.34-1.89l5.3,3.64a11.38,11.38,0,0,0,2.46-2.88,30.31,30.31,0,0,0,2.31-4.54L80.73,3.16l-3.67-.54Z"/><rect class="cls-2" x="34.87" y="8.64" width="17.21" height="5"/><rect class="cls-2" x="56.68" y="8.64" width="17.21" height="5"/><rect class="cls-2" x="34.87" y="17.43" width="17.21" height="5"/><rect class="cls-2" x="56.68" y="17.43" width="17.21" height="5"/></g></g></svg>