<svg xmlns="http://www.w3.org/2000/svg" viewBox="0 0 70.75 73.2"><defs><style>.cls-1{fill:#1c75bc;}.cls-2{fill:#ec6663;}</style></defs><g id="Layer_2" data-name="Layer 2"><g id="Layer_1-2" data-name="Layer 1"><path class="cls-1" d="M.18,0H14.86V2.56l-2.32.36-.3.65,4.89,7.27,5.3-7.62-3.1-.54V0H30.56V2.8l-3.37.42-7.8,10.12,9.08,13.11,3.22.57V29.7H17.42V27.31l2.15-.53.24-.63L14.45,18,8.7,26.39l3.12.63V29.7H0V27l3.57-.69,8.55-10.9L3.63,3.28.18,2.8Z"/><rect class="cls-2" x="6.79" y="34.51" width="61.66" height="7" transform="translate(-15.86 37.73) rotate(-45)"/><path class="cls-1" d="M58.79,35a9.9,9.9,0,0,1,8.93,4.82q3,4.82,3,14.26t-3,14.27a9.9,9.9,0,0,1-8.93,4.82,9.87,9.87,0,0,1-8.93-4.82q-3-4.83-3-14.27t3-14.26A9.87,9.87,0,0,1,58.79,35Zm0,4c-2.33,0-4.06,1.24-5.21,3.73S51.86,49,51.86,54.11a43.22,43.22,0,0,0,.47,6.53L63.85,42.27Q62,39,58.79,39Zm0,30.25q3.51,0,5.22-3.73t1.72-11.4a49.7,49.7,0,0,0-.49-7.36L53.47,65.16Q55.33,69.24,58.79,69.24Z"/></g></g></svg>