<svg xmlns="http://www.w3.org/2000/svg" viewBox="0 0 117.53 38.47"><defs><style>.cls-1{fill:#1c75bc;}.cls-2{fill:#ec6663;}</style></defs><g id="Layer_2" data-name="Layer 2"><g id="Layer_1-2" data-name="Layer 1"><path class="cls-1" d="M98.81,0c-9,0-15.27,5.26-21,10.91l-.13.13-8.08,8.2-.23.24c-.86.88-1.74,1.79-2.66,2.7l-.16.16c-4.31,4.23-9.33,8.33-15.27,8.33-6.37,0-11-4.8-11-11.43A11.46,11.46,0,0,1,51.64,7.8,14.68,14.68,0,0,1,60,10.64L58.16,13.5l14.08.59L65.7,1.6,64,4.26A21.38,21.38,0,0,0,51.77,0,19.4,19.4,0,0,0,32,19.24c0,11.17,7.8,19.23,18.72,19.23,8.94,0,15.26-5.25,21-10.9L80,19.24l.94-1c.63-.65,1.28-1.31,2-2l.16-.16c4.3-4.24,9.32-8.34,15.27-8.34,6.37,0,11,4.81,11,11.44A11.45,11.45,0,0,1,97.9,30.67a14.66,14.66,0,0,1-8.2-2.75l2.08-2.57L77.86,23.16l5.06,13.15,2-2.51c3.78,2.72,8,4.67,12.82,4.67a19.39,19.39,0,0,0,19.76-19.23C117.53,8.06,109.86,0,98.81,0Z"/><line class="cls-2" y1="19.23" x2="26.46" y2="19.23"/><rect class="cls-2" y="15.23" width="26.46" height="8"/></g></g></svg>