<svg xmlns="http://www.w3.org/2000/svg" viewBox="0 0 115.98 38.47"><defs><style>.cls-1{fill:#43668b;}.cls-2{fill:#ec6663;}</style></defs><g id="Layer_2" data-name="Layer 2"><g id="Layer_1-2" data-name="Layer 1"><path class="cls-1" d="M66.8,0c-8.95,0-15.27,5.26-21,10.91l-.13.13-8.08,8.2-.23.24c-.86.88-1.74,1.79-2.66,2.7l-.16.16c-4.31,4.23-9.33,8.33-15.27,8.33-6.37,0-11-4.8-11-11.43A11.46,11.46,0,0,1,19.63,7.8c6,0,10.61,4.3,14.8,8.42l5.31-5.31C34.21,5.45,27.86,0,19.76,0A19.4,19.4,0,0,0,0,19.24C0,30.41,7.8,38.47,18.72,38.47c8.94,0,15.26-5.25,21-10.9L48,19.24l.94-1c.63-.65,1.28-1.31,2-2l.16-.16c4.3-4.24,9.32-8.34,15.27-8.34,6.37,0,11,4.81,11,11.44A11.45,11.45,0,0,1,65.89,30.67c-6,0-10.61-4.29-14.8-8.41l-5.31,5.31c5.53,5.45,11.87,10.9,20,10.9A19.39,19.39,0,0,0,85.52,19.24C85.52,8.06,77.85,0,66.8,0Z"/><line class="cls-2" x1="89.52" y1="19.23" x2="115.98" y2="19.23"/><rect class="cls-2" x="89.52" y="15.24" width="26.46" height="8"/></g></g></svg>