<svg xmlns="http://www.w3.org/2000/svg" viewBox="0 0 113.78 88.13"><defs><style>.cls-1{fill:#1c75bc;}.cls-2{fill:#ec6663;}</style></defs><g id="Layer_2" data-name="Layer 2"><g id="Layer_1-2" data-name="Layer 1"><path class="cls-1" d="M14.58,88.13A14.58,14.58,0,0,1,5.82,61.9V8.76a8.77,8.77,0,0,1,17.53,0V61.9a14.58,14.58,0,0,1-8.77,26.23ZM14.58,3A5.76,5.76,0,0,0,8.82,8.76V63.47l-.67.45a11.58,11.58,0,1,0,12.86,0l-.66-.45V8.76A5.77,5.77,0,0,0,14.58,3Z"/><path class="cls-2" d="M17.43,66.22V26.69h-5.7V66.22a8.11,8.11,0,1,0,5.7,0Z"/><line class="cls-1" x1="25.87" y1="13.21" x2="32.58" y2="13.21"/><path class="cls-1" d="M32.58,14.71H25.87a1.5,1.5,0,1,1,0-3h6.71a1.5,1.5,0,0,1,0,3Z"/><line class="cls-1" x1="25.87" y1="26.45" x2="32.58" y2="26.45"/><path class="cls-1" d="M32.58,28H25.87a1.5,1.5,0,0,1,0-3h6.71a1.5,1.5,0,0,1,0,3Z"/><line class="cls-1" x1="25.87" y1="39.7" x2="32.58" y2="39.7"/><path class="cls-1" d="M32.58,41.2H25.87a1.5,1.5,0,0,1,0-3h6.71a1.5,1.5,0,0,1,0,3Z"/><line class="cls-1" x1="25.87" y1="52.94" x2="32.58" y2="52.94"/><path class="cls-1" d="M32.58,54.44H25.87a1.5,1.5,0,0,1,0-3h6.71a1.5,1.5,0,0,1,0,3Z"/><path class="cls-1" d="M102,29c-5.62,0-9.58,3.3-13.19,6.84l-.08.09L83.7,41l-.14.15c-.54.55-1.09,1.12-1.67,1.69l-.1.1c-2.7,2.65-5.85,5.23-9.58,5.23A6.83,6.83,0,0,1,65.28,41a7.19,7.19,0,0,1,7.18-7.18,9.29,9.29,0,0,1,5.22,1.78l-1.14,1.8,8.83.37L81.28,30l-1.06,1.66A13.43,13.43,0,0,0,72.54,29,12.16,12.16,0,0,0,60.15,41c0,7,4.89,12.06,11.74,12.06,5.6,0,9.57-3.3,13.18-6.84L90.22,41l.59-.61L92,39.18l.1-.1c2.7-2.66,5.85-5.23,9.58-5.23A6.84,6.84,0,0,1,108.64,41a7.18,7.18,0,0,1-7.17,7.17,9.17,9.17,0,0,1-5.15-1.73l1.31-1.61L88.9,43.49l3.17,8.24,1.27-1.57a13.66,13.66,0,0,0,8,2.93A12.16,12.16,0,0,0,113.78,41C113.78,34,109,29,102,29Z"/><path class="cls-2" d="M40.08,38.59H45.9V32.73h4.91v5.86h5.85v4.9H50.81v5.83H45.9V43.49H40.08Z"/></g></g></svg>