<svg xmlns="http://www.w3.org/2000/svg" viewBox="0 0 125.62 88.13"><defs><style>.cls-1{fill:#43668b;}.cls-2{fill:#ec6663;}</style></defs><g id="Layer_2" data-name="Layer 2"><g id="Layer_1-2" data-name="Layer 1"><path class="cls-1" d="M89.72,29.75c-6.66,0-11.36,3.92-15.65,8.12L74,38l-6,6.1-.17.18c-.64.65-1.3,1.33-2,2l-.12.12c-3.21,3.15-6.95,6.2-11.37,6.2-4.74,0-8.22-3.57-8.22-8.51a8.52,8.52,0,0,1,8.51-8.51c4.47,0,7.9,3.2,11,6.26l4-4c-4.11-4.06-8.84-8.12-14.87-8.12A14.44,14.44,0,0,0,40,44.07c0,8.31,5.8,14.31,13.93,14.31,6.65,0,11.35-3.9,15.64-8.11l6.12-6.2.7-.72c.47-.48.95-1,1.45-1.47l.12-.12c3.2-3.15,6.93-6.2,11.36-6.2,4.74,0,8.23,3.58,8.23,8.51A8.52,8.52,0,0,1,89,52.58c-4.47,0-7.89-3.2-11-6.26l-4,4c4.11,4.06,8.83,8.11,14.87,8.11a14.43,14.43,0,0,0,14.7-14.31C103.65,35.75,97.94,29.75,89.72,29.75Z"/><path class="cls-2" d="M105.94,41.17h6.91V34.23h5.83v6.94h6.94V47h-6.94v6.91h-5.83V47h-6.91Z"/><path class="cls-1" d="M14.58,88.13A14.58,14.58,0,0,1,5.82,61.9V8.76a8.77,8.77,0,0,1,17.53,0V61.9a14.58,14.58,0,0,1-8.77,26.23ZM14.58,3A5.76,5.76,0,0,0,8.82,8.76V63.47l-.67.45a11.58,11.58,0,1,0,12.86,0l-.66-.45V8.76A5.77,5.77,0,0,0,14.58,3Z"/><path class="cls-2" d="M17.43,66.22V26.69h-5.7V66.22a8.11,8.11,0,1,0,5.7,0Z"/><line class="cls-1" x1="25.87" y1="13.21" x2="32.58" y2="13.21"/><path class="cls-1" d="M32.58,14.71H25.87a1.5,1.5,0,1,1,0-3h6.71a1.5,1.5,0,0,1,0,3Z"/><line class="cls-1" x1="25.87" y1="26.45" x2="32.58" y2="26.45"/><path class="cls-1" d="M32.58,28H25.87a1.5,1.5,0,0,1,0-3h6.71a1.5,1.5,0,0,1,0,3Z"/><line class="cls-1" x1="25.87" y1="39.7" x2="32.58" y2="39.7"/><path class="cls-1" d="M32.58,41.2H25.87a1.5,1.5,0,0,1,0-3h6.71a1.5,1.5,0,0,1,0,3Z"/><line class="cls-1" x1="25.87" y1="52.94" x2="32.58" y2="52.94"/><path class="cls-1" d="M32.58,54.44H25.87a1.5,1.5,0,0,1,0-3h6.71a1.5,1.5,0,0,1,0,3Z"/></g></g></svg>