<svg xmlns="http://www.w3.org/2000/svg" viewBox="0 0 122.65 88.13"><defs><style>.cls-1{fill:#43668b;}.cls-2{fill:#ec6663;}</style></defs><g id="Layer_2" data-name="Layer 2"><g id="Layer_1-2" data-name="Layer 1"><path class="cls-1" d="M87.61,30.36c-6.38,0-10.89,3.75-15,7.78l-.09.09-5.76,5.84-.16.17c-.62.63-1.24,1.28-1.9,1.93l-.11.11c-3.07,3-6.65,5.94-10.88,5.94a7.77,7.77,0,0,1-7.88-8.15A8.16,8.16,0,0,1,54,35.92c4.28,0,7.56,3.06,10.55,6l3.78-3.78c-3.94-3.9-8.46-7.78-14.23-7.78A13.81,13.81,0,0,0,40,44.07c0,8,5.55,13.7,13.34,13.7,6.37,0,10.87-3.74,15-7.76l5.86-5.94.67-.69c.45-.46.91-.93,1.39-1.4l.11-.12c3.07-3,6.65-5.94,10.89-5.94a7.77,7.77,0,0,1,7.87,8.15A8.16,8.16,0,0,1,87,52.22c-4.29,0-7.56-3.06-10.55-6L72.63,50c3.94,3.88,8.46,7.76,14.23,7.76A13.82,13.82,0,0,0,101,44.07C101,36.1,95.48,30.36,87.61,30.36Z"/><line class="cls-2" x1="103.8" y1="44.07" x2="122.65" y2="44.07"/><rect class="cls-2" x="103.8" y="41.22" width="18.85" height="5.7"/><path class="cls-1" d="M14.58,88.13A14.58,14.58,0,0,1,5.82,61.9V8.76a8.77,8.77,0,0,1,17.53,0V61.9a14.58,14.58,0,0,1-8.77,26.23ZM14.58,3A5.76,5.76,0,0,0,8.82,8.76V63.47l-.67.45a11.58,11.58,0,1,0,12.86,0l-.66-.45V8.76A5.77,5.77,0,0,0,14.58,3Z"/><path class="cls-2" d="M17.43,66.22V26.69h-5.7V66.22a8.11,8.11,0,1,0,5.7,0Z"/><line class="cls-1" x1="25.87" y1="13.21" x2="32.58" y2="13.21"/><path class="cls-1" d="M32.58,14.71H25.87a1.5,1.5,0,1,1,0-3h6.71a1.5,1.5,0,0,1,0,3Z"/><line class="cls-1" x1="25.87" y1="26.45" x2="32.58" y2="26.45"/><path class="cls-1" d="M32.58,28H25.87a1.5,1.5,0,0,1,0-3h6.71a1.5,1.5,0,0,1,0,3Z"/><line class="cls-1" x1="25.87" y1="39.7" x2="32.58" y2="39.7"/><path class="cls-1" d="M32.58,41.2H25.87a1.5,1.5,0,0,1,0-3h6.71a1.5,1.5,0,0,1,0,3Z"/><line class="cls-1" x1="25.87" y1="52.94" x2="32.58" y2="52.94"/><path class="cls-1" d="M32.58,54.44H25.87a1.5,1.5,0,0,1,0-3h6.71a1.5,1.5,0,0,1,0,3Z"/></g></g></svg>