<svg xmlns="http://www.w3.org/2000/svg" viewBox="0 0 238.46 41.3"><defs><style>.cls-1{fill:#231f20;}.cls-2{fill:#ffde17;}</style></defs><g id="Layer_2" data-name="Layer 2"><g id="Layer_1-2" data-name="Layer 1"><path class="cls-1" d="M49.54,40.66V2.55H57L67.59,32,78.46,2.55h6.69V40.66H80.1v-31L69.6,38.11H64.37L54.17,9.58V40.66Z"/><path class="cls-1" d="M114.29,39.76a30.9,30.9,0,0,1-8.73,1.54,13.27,13.27,0,0,1-10.08-4.11,14.8,14.8,0,0,1-3.9-10.64A15.61,15.61,0,0,1,95,16.12a11,11,0,0,1,8.79-4.07,9.29,9.29,0,0,1,7.84,3.61q2.77,3.6,2.77,10.24l0,1.57H96.76q1.11,10,9.76,10a23.35,23.35,0,0,0,7.77-1.7ZM97,23.66h12.33q0-7.8-5.82-7.8T97,23.66Z"/><path class="cls-1" d="M139.8,40.66V35.4q-3.08,5.91-9.32,5.9a9.56,9.56,0,0,1-7.94-3.68q-2.9-3.69-2.9-10.07,0-7,3.29-11.22a10.85,10.85,0,0,1,16.87-.44V0h5.1V40.66Zm0-21.3q-3.93-3.46-7.46-3.47-7.29,0-7.29,11.15,0,9.81,6.49,9.81,4.22,0,8.26-4.61Z"/><path class="cls-1" d="M153.73,7.62V2.55h5.07V7.62Zm0,33v-28h5.07v28Z"/><path class="cls-1" d="M185.14,40.66V35.4q-4,5.91-9.81,5.9a7.61,7.61,0,0,1-5.82-2.3,8.74,8.74,0,0,1-2.16-6.22V12.69h5.07V31.13a8.18,8.18,0,0,0,.91,4.47,3.45,3.45,0,0,0,3,1.32q4.63,0,8.76-6.1V12.69h5.07v28Z"/><path class="cls-1" d="M199.06,40.66v-28h5.08V18q3.71-5.88,9.52-5.87,5.61,0,7.65,5.87,3.6-5.89,9.37-5.9a7.47,7.47,0,0,1,5.74,2.18,8.56,8.56,0,0,1,2,6.09V40.66h-5.1V21.11q0-4.78-3.78-4.78-3.95,0-8.27,5.58V40.66h-5.1V21.11q0-4.82-3.86-4.81t-8.21,5.61V40.66Z"/><circle class="cls-2" cx="18.33" cy="20.65" r="18.33"/></g></g></svg>