<svg xmlns="http://www.w3.org/2000/svg" viewBox="0 0 73.52 71.8"><defs><style>.cls-1{fill:#43668b;}.cls-2{fill:#ec6663;}</style></defs><g id="Layer_2" data-name="Layer 2"><g id="Layer_1-2" data-name="Layer 1"><path class="cls-1" d="M12.89,2.46H37.71q11.94,0,17.69,4.3t5.75,13.18a14.25,14.25,0,0,1-3.94,10.38q-3.94,4.07-11.79,5.78a21.88,21.88,0,0,1,6.13,2.59,12.11,12.11,0,0,1,3.9,4,25.84,25.84,0,0,1,2.76,7.69A55.21,55.21,0,0,0,60,57.09c1,2.66,2.33,4.48,4.05,5.45S68.64,64,72.66,64h.86V67.7c-1.46.28-2.81.5-4,.64a31.4,31.4,0,0,1-3.52.21,21.14,21.14,0,0,1-5.78-.69,10.72,10.72,0,0,1-4.07-2.11q-3.47-3-5.75-11.89Q49.51,50.68,49,49.1,47,43.16,43.73,40.88t-10-2.29c-.95,0-2.47,0-4.57.15l-.33,0V61.94l1.66,1.38,5.57.48v4H12.89v-4l5.52-.48,1.66-1.38V8.31L18.41,6.93l-5.52-.57ZM28.82,6.93V34c1,0,1.92.06,2.81.07s1.74,0,2.56,0q9,0,13.15-3.17t4.11-10.21q0-7.26-4.23-10.54T33.53,6.93Z"/><rect class="cls-2" x="-11.37" y="32.4" width="94.55" height="7" transform="translate(-14.87 35.91) rotate(-45.01)"/></g></g></svg>