<svg xmlns="http://www.w3.org/2000/svg" viewBox="0 0 155.48 51.45"><defs><style>.cls-1{fill:#231f20;}.cls-2{fill:#ec6663;}</style></defs><g id="Layer_2" data-name="Layer 2"><g id="Layer_1-2" data-name="Layer 1"><path class="cls-1" d="M49.54,40.66V2.55H55V18.62H73.07V2.55h5.41V40.66H73.07v-18H55v18Z"/><path class="cls-1" d="M87.13,7.62V2.55H92.2V7.62Zm0,33v-28H92.2v28Z"/><path class="cls-1" d="M101.16,50l.59-4.4a20.16,20.16,0,0,0,8.67,2.09q8.58,0,8.58-9.09V34.14A9.52,9.52,0,0,1,109.78,40a9.71,9.71,0,0,1-8-3.65q-3-3.66-3-9.86a15.64,15.64,0,0,1,3.37-10.41,10.89,10.89,0,0,1,8.73-4A10.42,10.42,0,0,1,119,15.89v-3.2h5.1V33a50.76,50.76,0,0,1-.68,9.72,10.68,10.68,0,0,1-2.57,5.16q-3.31,3.53-10.32,3.53A29.28,29.28,0,0,1,101.16,50ZM119,31V19.36a10,10,0,0,0-7.29-3.47,6.34,6.34,0,0,0-5.48,2.8,13.16,13.16,0,0,0-2,7.7q0,9.2,6.46,9.19Q115.11,35.58,119,31Z"/><path class="cls-1" d="M132.62,40.66V0h5.07V18q4-5.88,9.83-5.87a7.56,7.56,0,0,1,5.8,2.3,8.69,8.69,0,0,1,2.16,6.19V40.66h-5.07V22.22a8.07,8.07,0,0,0-.92-4.44,3.41,3.41,0,0,0-3-1.33q-4.66,0-8.78,6.11v18.1Z"/><circle class="cls-2" cx="18.33" cy="25.72" r="18.33"/></g></g></svg>