<svg xmlns="http://www.w3.org/2000/svg" viewBox="0 0 142.77 38.75"><defs><style>.cls-1{fill:#231f20;}.cls-2{fill:#009444;}</style></defs><g id="Layer_2" data-name="Layer 2"><g id="Layer_1-2" data-name="Layer 1"><path class="cls-1" d="M49.54,38.11V0H55V34.07H72.09v4Z"/><path class="cls-1" d="M87.44,38.75a12.22,12.22,0,0,1-9.58-4q-3.58-4-3.58-10.64t3.59-10.68a12.58,12.58,0,0,1,9.75-3.92,12.56,12.56,0,0,1,9.74,3.92q3.6,3.93,3.6,10.63T97.35,34.84Q93.75,38.76,87.44,38.75Zm.07-3.81q8.07,0,8.06-10.86T87.62,13.34q-7.94,0-7.93,10.79T87.51,34.94Z"/><path class="cls-1" d="M110.81,38.11l-8-28h5L113.9,31.8l6.62-21.65h5.07l5.79,21.65,7-21.65h4.36l-9.12,28h-5.1l-5.92-21.66-6.69,21.66Z"/><circle class="cls-2" cx="18.33" cy="19.38" r="18.33"/></g></g></svg>